<mxfile host="app.diagrams.net" agent="Mozilla/5.0 (Macintosh; Intel Mac OS X 10_15_7) AppleWebKit/537.36 (KHTML, like Gecko) Chrome/138.0.0.0 Safari/537.36" version="28.0.5">
  <diagram name="Page-1" id="13e1069c-82ec-6db2-03f1-153e76fe0fe0">
    <mxGraphModel dx="1426" dy="693" grid="1" gridSize="10" guides="1" tooltips="1" connect="1" arrows="1" fold="1" page="1" pageScale="1" pageWidth="1100" pageHeight="850" background="none" math="0" shadow="0">
      <root>
        <mxCell id="0" />
        <mxCell id="1" parent="0" />
        <mxCell id="7baba1c4bc27f4b0-2" value="Server" style="shape=umlLifeline;perimeter=lifelinePerimeter;whiteSpace=wrap;html=1;container=1;collapsible=0;recursiveResize=0;outlineConnect=0;rounded=1;shadow=0;comic=0;labelBackgroundColor=none;strokeWidth=1;fontFamily=Verdana;fontSize=12;align=center;" parent="1" vertex="1">
          <mxGeometry x="410" y="80" width="100" height="520" as="geometry" />
        </mxCell>
        <mxCell id="7baba1c4bc27f4b0-10" value="" style="html=1;points=[];perimeter=orthogonalPerimeter;rounded=0;shadow=0;comic=0;labelBackgroundColor=none;strokeWidth=1;fontFamily=Verdana;fontSize=12;align=center;" parent="7baba1c4bc27f4b0-2" vertex="1">
          <mxGeometry x="45" y="80" width="10" height="80" as="geometry" />
        </mxCell>
        <mxCell id="0cyMWiEmjz66wqVUGM_n-6" value="Connected WS + send even leaderboard:update" style="html=1;verticalAlign=bottom;endArrow=block;labelBackgroundColor=none;fontFamily=Verdana;fontSize=12;elbow=horizontal;dashed=1;" edge="1" parent="7baba1c4bc27f4b0-2">
          <mxGeometry relative="1" as="geometry">
            <mxPoint x="40" y="140" as="sourcePoint" />
            <mxPoint x="-254.5" y="140" as="targetPoint" />
            <mxPoint as="offset" />
          </mxGeometry>
        </mxCell>
        <mxCell id="0cyMWiEmjz66wqVUGM_n-30" value="" style="html=1;points=[];perimeter=orthogonalPerimeter;rounded=0;shadow=0;comic=0;labelBackgroundColor=none;strokeWidth=1;fontFamily=Verdana;fontSize=12;align=center;" vertex="1" parent="7baba1c4bc27f4b0-2">
          <mxGeometry x="45" y="230" width="10" height="197" as="geometry" />
        </mxCell>
        <mxCell id="7baba1c4bc27f4b0-11" value="WebSocket Connect" style="html=1;verticalAlign=bottom;endArrow=block;labelBackgroundColor=none;fontFamily=Verdana;fontSize=12;elbow=horizontal;entryX=0.2;entryY=0.244;entryDx=0;entryDy=0;entryPerimeter=0;" parent="1" target="7baba1c4bc27f4b0-10" edge="1">
          <mxGeometry x="-0.0937" relative="1" as="geometry">
            <mxPoint x="150" y="180.88" as="sourcePoint" />
            <mxPoint x="445" y="179.51999999999998" as="targetPoint" />
            <mxPoint as="offset" />
          </mxGeometry>
        </mxCell>
        <mxCell id="0cyMWiEmjz66wqVUGM_n-1" value="Client&amp;nbsp;" style="shape=umlActor;verticalLabelPosition=bottom;verticalAlign=top;html=1;outlineConnect=0;" vertex="1" parent="1">
          <mxGeometry x="135" y="40" width="30" height="60" as="geometry" />
        </mxCell>
        <mxCell id="0cyMWiEmjz66wqVUGM_n-3" value="" style="endArrow=none;dashed=1;html=1;dashPattern=1 3;strokeWidth=2;rounded=0;" edge="1" parent="1" source="0cyMWiEmjz66wqVUGM_n-45">
          <mxGeometry width="50" height="50" relative="1" as="geometry">
            <mxPoint x="150" y="280" as="sourcePoint" />
            <mxPoint x="150" y="120" as="targetPoint" />
          </mxGeometry>
        </mxCell>
        <mxCell id="0cyMWiEmjz66wqVUGM_n-4" value="DynamoDB" style="shape=umlLifeline;perimeter=lifelinePerimeter;whiteSpace=wrap;html=1;container=1;collapsible=0;recursiveResize=0;outlineConnect=0;rounded=1;shadow=0;comic=0;labelBackgroundColor=none;strokeWidth=1;fontFamily=Verdana;fontSize=12;align=center;" vertex="1" parent="1">
          <mxGeometry x="700" y="80" width="100" height="520" as="geometry" />
        </mxCell>
        <mxCell id="0cyMWiEmjz66wqVUGM_n-5" value="" style="html=1;points=[];perimeter=orthogonalPerimeter;rounded=0;shadow=0;comic=0;labelBackgroundColor=none;strokeWidth=1;fontFamily=Verdana;fontSize=12;align=center;" vertex="1" parent="0cyMWiEmjz66wqVUGM_n-4">
          <mxGeometry x="45" y="290" width="10" height="70" as="geometry" />
        </mxCell>
        <mxCell id="0cyMWiEmjz66wqVUGM_n-19" value="" style="endArrow=none;dashed=1;html=1;dashPattern=1 3;strokeWidth=2;rounded=0;" edge="1" parent="1" source="0cyMWiEmjz66wqVUGM_n-40">
          <mxGeometry width="50" height="50" relative="1" as="geometry">
            <mxPoint x="150" y="640" as="sourcePoint" />
            <mxPoint x="150" y="280" as="targetPoint" />
          </mxGeometry>
        </mxCell>
        <mxCell id="0cyMWiEmjz66wqVUGM_n-23" value="" style="endArrow=classic;html=1;rounded=0;exitX=0.5;exitY=0.625;exitDx=0;exitDy=0;exitPerimeter=0;entryX=1;entryY=0.906;entryDx=0;entryDy=0;entryPerimeter=0;curved=1;" edge="1" parent="1">
          <mxGeometry width="50" height="50" relative="1" as="geometry">
            <mxPoint x="155" y="507" as="sourcePoint" />
            <mxPoint x="155" y="539.48" as="targetPoint" />
            <Array as="points">
              <mxPoint x="240" y="517" />
              <mxPoint x="190" y="537" />
            </Array>
          </mxGeometry>
        </mxCell>
        <mxCell id="0cyMWiEmjz66wqVUGM_n-44" value="update board UI" style="edgeLabel;align=center;verticalAlign=middle;resizable=0;points=[];labelBackgroundColor=default;" vertex="1" connectable="0" parent="0cyMWiEmjz66wqVUGM_n-23">
          <mxGeometry x="-0.283" y="-1" relative="1" as="geometry">
            <mxPoint x="53" y="5" as="offset" />
          </mxGeometry>
        </mxCell>
        <mxCell id="0cyMWiEmjz66wqVUGM_n-29" value="update score" style="html=1;verticalAlign=bottom;endArrow=block;labelBackgroundColor=none;fontFamily=Verdana;fontSize=12;elbow=horizontal;" edge="1" parent="1">
          <mxGeometry x="-0.0937" relative="1" as="geometry">
            <mxPoint x="150" y="347" as="sourcePoint" />
            <mxPoint x="452" y="347" as="targetPoint" />
            <mxPoint as="offset" />
          </mxGeometry>
        </mxCell>
        <mxCell id="0cyMWiEmjz66wqVUGM_n-31" value="update score to db" style="html=1;verticalAlign=bottom;endArrow=block;labelBackgroundColor=none;fontFamily=Verdana;fontSize=12;elbow=horizontal;exitX=1.1;exitY=0.403;exitDx=0;exitDy=0;exitPerimeter=0;" edge="1" parent="1" source="0cyMWiEmjz66wqVUGM_n-30">
          <mxGeometry x="-0.0937" relative="1" as="geometry">
            <mxPoint x="390" y="317" as="sourcePoint" />
            <mxPoint x="749.5" y="387.5999999999999" as="targetPoint" />
            <mxPoint as="offset" />
          </mxGeometry>
        </mxCell>
        <mxCell id="0cyMWiEmjz66wqVUGM_n-32" value="" style="endArrow=classic;html=1;rounded=0;entryX=1.3;entryY=0.766;entryDx=0;entryDy=0;entryPerimeter=0;dashed=1;" edge="1" parent="1">
          <mxGeometry width="50" height="50" relative="1" as="geometry">
            <mxPoint x="749.5" y="427" as="sourcePoint" />
            <mxPoint x="468" y="427" as="targetPoint" />
          </mxGeometry>
        </mxCell>
        <mxCell id="0cyMWiEmjz66wqVUGM_n-33" value="Success" style="edgeLabel;html=1;align=center;verticalAlign=middle;resizable=0;points=[];" vertex="1" connectable="0" parent="0cyMWiEmjz66wqVUGM_n-32">
          <mxGeometry x="-0.1794" y="2" relative="1" as="geometry">
            <mxPoint x="-24" y="-12" as="offset" />
          </mxGeometry>
        </mxCell>
        <mxCell id="0cyMWiEmjz66wqVUGM_n-34" value="" style="endArrow=classic;html=1;rounded=0;dashed=1;" edge="1" parent="1">
          <mxGeometry width="50" height="50" relative="1" as="geometry">
            <mxPoint x="459.5" y="467" as="sourcePoint" />
            <mxPoint x="150" y="467" as="targetPoint" />
          </mxGeometry>
        </mxCell>
        <mxCell id="0cyMWiEmjz66wqVUGM_n-36" value="result and send even leaderboard:update if success" style="edgeLabel;html=1;align=center;verticalAlign=middle;resizable=0;points=[];" vertex="1" connectable="0" parent="0cyMWiEmjz66wqVUGM_n-34">
          <mxGeometry x="-0.1632" relative="1" as="geometry">
            <mxPoint x="-30" y="-10" as="offset" />
          </mxGeometry>
        </mxCell>
        <mxCell id="0cyMWiEmjz66wqVUGM_n-41" value="" style="endArrow=none;dashed=1;html=1;dashPattern=1 3;strokeWidth=2;rounded=0;" edge="1" parent="1" target="0cyMWiEmjz66wqVUGM_n-40">
          <mxGeometry width="50" height="50" relative="1" as="geometry">
            <mxPoint x="150" y="507" as="sourcePoint" />
            <mxPoint x="150" y="227" as="targetPoint" />
          </mxGeometry>
        </mxCell>
        <mxCell id="0cyMWiEmjz66wqVUGM_n-40" value="" style="html=1;points=[];perimeter=orthogonalPerimeter;rounded=0;shadow=0;comic=0;labelBackgroundColor=none;strokeWidth=1;fontFamily=Verdana;fontSize=12;align=center;" vertex="1" parent="1">
          <mxGeometry x="145" y="297" width="10" height="303" as="geometry" />
        </mxCell>
        <mxCell id="0cyMWiEmjz66wqVUGM_n-46" value="" style="endArrow=none;dashed=1;html=1;dashPattern=1 3;strokeWidth=2;rounded=0;" edge="1" parent="1" target="0cyMWiEmjz66wqVUGM_n-45">
          <mxGeometry width="50" height="50" relative="1" as="geometry">
            <mxPoint x="150" y="280" as="sourcePoint" />
            <mxPoint x="150" y="120" as="targetPoint" />
          </mxGeometry>
        </mxCell>
        <mxCell id="0cyMWiEmjz66wqVUGM_n-45" value="" style="html=1;points=[];perimeter=orthogonalPerimeter;rounded=0;shadow=0;comic=0;labelBackgroundColor=none;strokeWidth=1;fontFamily=Verdana;fontSize=12;align=center;" vertex="1" parent="1">
          <mxGeometry x="145" y="170" width="10" height="110" as="geometry" />
        </mxCell>
        <mxCell id="0cyMWiEmjz66wqVUGM_n-47" value="" style="endArrow=classic;html=1;rounded=0;exitX=0.5;exitY=0.625;exitDx=0;exitDy=0;exitPerimeter=0;curved=1;" edge="1" parent="1">
          <mxGeometry width="50" height="50" relative="1" as="geometry">
            <mxPoint x="155" y="230" as="sourcePoint" />
            <mxPoint x="155" y="262" as="targetPoint" />
            <Array as="points">
              <mxPoint x="240" y="240" />
              <mxPoint x="190" y="260" />
            </Array>
          </mxGeometry>
        </mxCell>
        <mxCell id="0cyMWiEmjz66wqVUGM_n-48" value="load board UI" style="edgeLabel;align=center;verticalAlign=middle;resizable=0;points=[];labelBackgroundColor=default;" vertex="1" connectable="0" parent="0cyMWiEmjz66wqVUGM_n-47">
          <mxGeometry x="-0.283" y="-1" relative="1" as="geometry">
            <mxPoint x="43" y="12" as="offset" />
          </mxGeometry>
        </mxCell>
      </root>
    </mxGraphModel>
  </diagram>
</mxfile>
